<!-- Fleet Management System Icon - 32x32 PNG equivalent -->
<!-- This represents a truck with cargo, symbolizing fleet management -->
<svg width="32" height="32" viewBox="0 0 32 32" fill="none" xmlns="http://www.w3.org/2000/svg">
  <!-- Main truck body -->
  <path d="M2 10C2 8.89543 2.89543 8 4 8H20C21.1046 8 22 8.89543 22 10V18C22 19.1046 21.1046 20 20 20H4C2.89543 20 2 19.1046 2 18V10Z" fill="#1e40af"/>
  <!-- Truck cab -->
  <path d="M22 11C22 10.4477 22.4477 10 23 10H29C29.5523 10 30 10.4477 30 11V19C30 19.5523 29.5523 20 29 20H23C22.4477 20 22 19.5523 22 19V11Z" fill="#3b82f6"/>
  <!-- Cargo area -->
  <rect x="4" y="10" width="16" height="8" rx="1" fill="#60a5fa"/>
  <!-- Cargo load -->
  <rect x="6" y="12" width="12" height="4" rx="1" fill="#fbbf24"/>
  <!-- Wheels -->
  <circle cx="7" cy="24" r="3" fill="#1f2937"/>
  <circle cx="17" cy="24" r="3" fill="#1f2937"/>
  <circle cx="25" cy="24" r="2" fill="#1f2937"/>
  <!-- Wheel hubs -->
  <circle cx="7" cy="24" r="1" fill="#6b7280"/>
  <circle cx="17" cy="24" r="1" fill="#6b7280"/>
  <circle cx="25" cy="24" r="1" fill="#6b7280"/>
  <!-- Cab window -->
  <rect x="23" y="11" width="6" height="3" rx="0.5" fill="#dbeafe"/>
  <!-- Fleet branding -->
  <text x="16" y="30" text-anchor="middle" font-family="Arial, sans-serif" font-size="3" font-weight="bold" fill="#1e40af">FLEET CMD</text>
</svg>
